<svg xmlns="http://www.w3.org/2000/svg" viewBox="0 0 1012.28 427.6"><defs><style>.cls-1{opacity:0.5;}.cls-2{fill:#b9272d;}</style></defs><g id="_Слой_4" data-name="&lt;Слой&gt;"><path class="cls-2" d="M732.13,427.6l28.42-71.52,3.38,1.22L735.5,428.82Z"/><path class="cls-2" d="M763.38,427.6l28.42-71.52,3.38,1.22-28.43,71.52Z"/><path class="cls-2" d="M828,397.28l-20.2,20.58v.34H840v3.71H801.21V419l24.08-24.25q5.87-5.87,7.89-10a17.64,17.64,0,0,0,2-7.84,12.13,12.13,0,0,0-3.88-9,13.37,13.37,0,0,0-9.74-3.8,27.22,27.22,0,0,0-10.12,1.73A12,12,0,0,0,809,367c-.84.5-1.45.88-1.81,1.14-.06,0-.28.18-.66.46l-1.07.8-1.23.85-1.64-3.08a33.73,33.73,0,0,1,8.48-4.94,31.21,31.21,0,0,1,10.62-1.73,17.9,17.9,0,0,1,12.7,4.64,15.44,15.44,0,0,1,4.93,11.68,20.2,20.2,0,0,1-2.36,9.2Q834.53,390.61,828,397.28Z"/><path class="cls-2" d="M856,369.06a18.69,18.69,0,0,1,16.15-8.56q10.13,0,16.15,8.56t6,22.61q0,14-6,22.65T872.1,423q-10.2,0-16.15-8.64t-6-22.65Q850,377.63,856,369.06Zm2.82,42.51q4.9,7.56,13.33,7.55t13.33-7.55q4.85-7.5,4.85-19.9t-4.85-19.86q-4.86-7.51-13.33-7.51t-13.33,7.51q-4.85,7.5-4.85,19.86T858.77,411.57Z"/><path class="cls-2" d="M930.85,397.28l-20.2,20.58v.34h32.22v3.71H904.11V419l24.08-24.25q5.87-5.87,7.89-10a17.64,17.64,0,0,0,2-7.84,12.13,12.13,0,0,0-3.88-9,13.37,13.37,0,0,0-9.74-3.8,27.22,27.22,0,0,0-10.12,1.73,12,12,0,0,0-2.49,1.14c-.84.5-1.45.88-1.81,1.14-.06,0-.28.18-.66.46l-1.07.8-1.23.85-1.64-3.08a33.73,33.73,0,0,1,8.48-4.94,31.21,31.21,0,0,1,10.62-1.73,17.9,17.9,0,0,1,12.7,4.64,15.44,15.44,0,0,1,4.93,11.68,20.2,20.2,0,0,1-2.36,9.2Q937.43,390.61,930.85,397.28Z"/><path class="cls-2" d="M982.3,397.28l-20.2,20.58v.34h32.22v3.71H955.56V419l24.08-24.25q5.86-5.87,7.89-10a17.64,17.64,0,0,0,2-7.84,12.13,12.13,0,0,0-3.88-9,13.37,13.37,0,0,0-9.74-3.8,27.22,27.22,0,0,0-10.12,1.73,12,12,0,0,0-2.49,1.14c-.84.5-1.45.88-1.81,1.14-.06,0-.28.18-.66.46l-1.07.8-1.23.85-1.64-3.08a33.73,33.73,0,0,1,8.48-4.94A31.21,31.21,0,0,1,976,360.5a17.9,17.9,0,0,1,12.7,4.64,15.44,15.44,0,0,1,4.93,11.68,20.2,20.2,0,0,1-2.36,9.2Q988.88,390.61,982.3,397.28Z"/><path class="cls-2" d="M28.87,36.53H28.5v53.2H6V1.84H34.88l21,50.5h.49l21-50.5h28.87V89.73H83.73V36.53h-.37L62,89.73H50.2Z"/><path class="cls-2" d="M133.86,12.93Q146.61,0,166.16,0t32.3,12.93q12.75,12.93,12.75,32.86T198.46,78.7q-12.75,12.93-32.3,12.93T133.86,78.7q-12.75-12.93-12.75-32.91T133.86,12.93Zm16.12,51A20.55,20.55,0,0,0,166.16,71a20.91,20.91,0,0,0,16.3-7.11q6.31-7.05,6.32-18.14t-6.32-18.15a20.86,20.86,0,0,0-16.3-7A20.62,20.62,0,0,0,150,27.64q-6.31,7.05-6.31,18.15T150,63.93Z"/><path class="cls-2" d="M260.67,20.59V34.26a135.2,135.2,0,0,1-2.76,29.12,41.59,41.59,0,0,1-3.37,9.68,65.7,65.7,0,0,1-4.32,7.57,17.13,17.13,0,0,1-4.63,4.5,41,41,0,0,1-5.14,3.13,21.53,21.53,0,0,1-5.7,1.84c-2.87.57-4.7.92-5.52,1-.66.08-2.47.25-5.46.49l-3.61-18.45a26.23,26.23,0,0,0,3.18-.55,25.89,25.89,0,0,0,3.38-1.1,10.78,10.78,0,0,0,3.86-2.27,51.24,51.24,0,0,0,3.18-4.17,17.68,17.68,0,0,0,3-6.56,94.42,94.42,0,0,0,1.77-9.68,97.16,97.16,0,0,0,.8-13.36V1.84h65V89.73H282.68V20.59Z"/><path class="cls-2" d="M331.89,12.93Q344.64,0,364.19,0t32.3,12.93q12.75,12.93,12.75,32.86T396.49,78.7q-12.75,12.93-32.3,12.93T331.89,78.7q-12.75-12.93-12.75-32.91T331.89,12.93Zm16.12,51A20.55,20.55,0,0,0,364.19,71a20.93,20.93,0,0,0,16.31-7.11q6.3-7.05,6.31-18.14T380.5,27.64a20.89,20.89,0,0,0-16.31-7A20.62,20.62,0,0,0,348,27.64q-6.31,7.05-6.31,18.15T348,63.93Z"/><path class="cls-2" d="M441.91,1.84h65.64V69.63h9l-1.22,40.45H500.26l-.61-20.35H435.1l-.61,20.35H419.41l-1.22-40.45H431q10.9-8.89,10.91-37.88Zm14.16,67.79h29.78v-49H463.24v9.87q0,25.38-7.17,38.43Z"/><path class="cls-2" d="M596.06,56.33H551.37V69.26H601V89.73H528.88V1.84h71V22.31H551.37V38h44.69Z"/><path class="cls-2" d="M734.7,1.84,707.12,43.27v.25L736,89.73H712.39L688.91,52.22h-5.39V89.73H661V52.22h-5.39L632.16,89.73H608.44L637.3,43.52v-.25L609.72,1.84h23.72l22.19,32.67H661V1.84h22.5V34.51h5.39L711.1,1.84Z"/><path class="cls-2" d="M769.14,35.86h32.73v-34h22.5V89.73h-22.5V57.49H769.14V89.73H746.65V1.84h22.49Z"/><path class="cls-2" d="M833.74,89.73,867.39,1.84H893L926.6,89.73H901.1l-4.35-13.18h-33l-4.35,13.18Zm57-31.26L880.45,28h-.56L869.72,58.47Z"/><path class="cls-2" d="M951.67,52.47v-.62q-15.21-6.91-15.2-23,0-12.45,8.58-19.74t22.31-7.29h44.92V89.73H989.85V59.21H979.12a33,33,0,0,0-6.49.67,8.17,8.17,0,0,0-6,5.52l-9.68,24.33H932.05l9.69-26.11Q945,55.22,951.67,52.47ZM959.33,32a9,9,0,0,0,2.82,6.87,10.16,10.16,0,0,0,7.23,2.7h20.47V22.31H969.38a10,10,0,0,0-7.23,2.7A9.22,9.22,0,0,0,959.33,32Z"/><path class="cls-2" d="M40.51,186.69v13.67a135.79,135.79,0,0,1-2.75,29.11,41.86,41.86,0,0,1-3.38,9.69,65.41,65.41,0,0,1-4.32,7.56,17.27,17.27,0,0,1-4.62,4.51,43.56,43.56,0,0,1-5.15,3.13,21.93,21.93,0,0,1-5.7,1.83c-2.86.58-4.7.92-5.52,1.05-.65.08-2.47.24-5.45.49L0,239.28a29,29,0,0,0,3.19-.55,26.66,26.66,0,0,0,3.37-1.11,10.55,10.55,0,0,0,3.86-2.27q.86-.91,3.19-4.16a17.58,17.58,0,0,0,3-6.56,94.38,94.38,0,0,0,1.78-9.69,98.9,98.9,0,0,0,.79-13.36V167.93h65v87.9H62.52V186.69Z"/><path class="cls-2" d="M179.83,255.83H157.34V208.39H157l-36,47.44H102.11v-87.9h22.5v47.63h.49l36-47.63h18.69Z"/><path class="cls-2" d="M215.56,167.93h65.65v67.79h9L289,276.18H273.91l-.61-20.35H208.76l-.62,20.35H193.07l-1.23-40.46h12.81q10.9-8.88,10.91-37.88Zm14.16,67.79h29.79v-49H236.89v9.87q0,25.37-7.17,38.43Z"/><path class="cls-2" d="M369.71,222.42H325v12.93h49.58v20.48H302.53v-87.9h71V188.4H325v15.7h44.68Z"/><path class="cls-2" d="M435.17,230.7H412v25.13H389.5v-87.9h45.67q14,0,23.29,9.14a30.7,30.7,0,0,1,9.25,22.67q0,13.86-9.13,22.44T435.17,230.7Zm-1.35-42.3H412v22.38h21.82c3.59,0,6.39-1.11,8.4-3.31a11.1,11.1,0,0,0,3-7.91,11.25,11.25,0,0,0-3-7.91A11,11,0,0,0,433.82,188.4Z"/><path class="cls-2" d="M526.31,237.13a49.36,49.36,0,0,0,12.44-1.78,42.33,42.33,0,0,0,10.66-4.1l3.74,19.92q-11.58,6.44-27.64,6.56-21.57,0-35.12-12.45t-13.55-32.66q0-20.24,13.49-33.35t35.18-13.18a57.83,57.83,0,0,1,26,5.89l-5.64,20.47a37.36,37.36,0,0,0-20.35-5.76q-12.32,0-19.25,7.48a26.15,26.15,0,0,0-7,18.45q0,11.26,7.54,17.89T526.31,237.13Z"/><path class="cls-2" d="M619.53,167.81H647l-33.1,35.67,35.61,52.35H622l-25.13-37.27-9.5,10.18v27.09H564.92v-87.9h22.49V203h.49Z"/><path class="cls-2" d="M651.65,255.83l33.64-87.9h25.56l33.65,87.9H719l-4.36-13.18h-33l-4.35,13.18Zm57-31.26L698.35,194h-.55l-10.18,30.53Z"/><path class="cls-2" d="M769.57,218.56V218q-15.21-6.93-15.2-23,0-12.44,8.58-19.73t22.31-7.3h44.93v87.9H807.75V225.3H797a33.1,33.1,0,0,0-6.5.68q-4.23.92-6,5.51l-9.68,24.34H750l9.68-26.11Q762.9,221.32,769.57,218.56Zm7.66-20.47a8.94,8.94,0,0,0,2.82,6.86,10.16,10.16,0,0,0,7.23,2.7h20.47V188.4H787.28a10,10,0,0,0-7.23,2.7A9.24,9.24,0,0,0,777.23,198.09Z"/><path class="cls-2" d="M6,334H83.6v87.89H61.11V354.5H28.5v67.42H6Z"/><path class="cls-2" d="M147.16,396.79H124v25.13H101.5V334h45.66q14,0,23.29,9.13a30.72,30.72,0,0,1,9.26,22.68q0,13.85-9.14,22.43T147.16,396.79Zm-1.35-42.29H124v22.37h21.82q5.4,0,8.4-3.31a11.09,11.09,0,0,0,3-7.91,11.21,11.21,0,0,0-3-7.9A11,11,0,0,0,145.81,354.5Z"/><path class="cls-2" d="M259.14,388.52H214.46v12.93H264v20.47H192V334h71V354.5H214.46v15.69h44.68Z"/><path class="cls-2" d="M301.8,368.72h-.37v53.2h-22.5V334H307.8l21,50.5h.49l21-50.5h28.87v87.89H356.65v-53.2h-.36l-21.4,53.2H323.13Z"/><path class="cls-2" d="M474.88,421.92H452.39V374.48H452l-36,47.44H397.17V334h22.49v47.62h.49l36-47.62h18.69Z"/><path class="cls-2" d="M508.47,384.66V384q-15.21-6.92-15.2-23,0-12.45,8.58-19.74T524.16,334h44.93v87.89H546.65V391.4H535.93a33.07,33.07,0,0,0-6.5.67,8.17,8.17,0,0,0-6,5.52l-9.68,24.33H488.86l9.68-26.11Q501.79,387.41,508.47,384.66Zm7.66-20.48a9,9,0,0,0,2.82,6.87,10.16,10.16,0,0,0,7.23,2.7h20.47V354.5H526.18a10,10,0,0,0-7.23,2.7A9.22,9.22,0,0,0,516.13,364.18Z"/></g></svg>