<svg xmlns="http://www.w3.org/2000/svg" viewBox="0 0 1215.38 707.85"><defs><style>.cls-1{opacity:0.5;}.cls-2{font-size:86.37px;font-family:Matahari-300Light, Matahari;font-weight:300;}.cls-2,.cls-3{fill:#b9272d;}</style></defs><g id="_Слой_4" data-name="&lt;Слой&gt;"><text class="cls-2" transform="translate(825.46 563.95)">//2022</text><path class="cls-3" d="M121.94,178.57h-.36v53.2H99.08V143.88H128l21,50.5h.49l21-50.5h28.87v87.89H176.8v-53.2h-.37L155,231.77H143.27Z"/><path class="cls-3" d="M226.94,155Q239.68,142,259.24,142T291.54,155q12.75,12.93,12.75,32.85t-12.75,32.92q-12.75,12.93-32.3,12.93t-32.3-12.93q-12.75-12.93-12.75-32.92T226.94,155Zm16.12,51a20.53,20.53,0,0,0,16.18,7.11,20.91,20.91,0,0,0,16.3-7.11q6.31-7,6.31-18.15t-6.31-18.14a20.87,20.87,0,0,0-16.3-7.05,20.61,20.61,0,0,0-16.18,7.05q-6.31,7-6.32,18.14T243.06,206Z"/><path class="cls-3" d="M353.75,162.63V176.3A135,135,0,0,1,351,205.41a42.14,42.14,0,0,1-3.37,9.69,68.83,68.83,0,0,1-4.32,7.57,17.28,17.28,0,0,1-4.63,4.5,42.24,42.24,0,0,1-5.15,3.13,21.53,21.53,0,0,1-5.7,1.84q-4.29.86-5.52,1c-.65.08-2.47.25-5.45.49l-3.62-18.45a26.58,26.58,0,0,0,3.19-.55,26,26,0,0,0,3.37-1.1,10.6,10.6,0,0,0,3.86-2.27,50.53,50.53,0,0,0,3.19-4.17,17.51,17.51,0,0,0,3-6.56,91.49,91.49,0,0,0,1.78-9.68,98.87,98.87,0,0,0,.8-13.36V143.88h65v87.89h-21.7V162.63Z"/><path class="cls-3" d="M425,155Q437.7,142,457.27,142T489.57,155q12.75,12.93,12.75,32.85t-12.75,32.92q-12.75,12.93-32.3,12.93T425,220.74q-12.75-12.93-12.75-32.92T425,155Zm16.12,51a20.53,20.53,0,0,0,16.18,7.11,20.91,20.91,0,0,0,16.3-7.11q6.31-7,6.31-18.15t-6.31-18.14a20.87,20.87,0,0,0-16.3-7.05,20.61,20.61,0,0,0-16.18,7.05q-6.31,7-6.32,18.14T441.09,206Z"/><path class="cls-3" d="M535,143.88h65.65v67.79h9l-1.23,40.45H593.33l-.61-20.35H528.18l-.61,20.35H512.49l-1.23-40.45h12.81Q535,202.78,535,173.79Zm14.16,67.79h29.79v-49H556.31v9.87q0,25.38-7.17,38.43Z"/><path class="cls-3" d="M689.13,198.37H644.45V211.3H694v20.47H622V143.88h71v20.47H644.45V180h44.68Z"/><path class="cls-3" d="M827.77,143.88l-27.58,41.43v.25l28.87,46.21h-23.6L782,194.26h-5.4v37.51H754.1V194.26h-5.4l-23.47,37.51H701.51l28.87-46.21v-.25L702.8,143.88h23.72l22.18,32.67h5.4V143.88h22.49v32.67H782l22.18-32.67Z"/><path class="cls-3" d="M862.22,177.89H895v-34h22.49v87.89H895V199.53H862.22v32.24h-22.5V143.88h22.5Z"/><path class="cls-3" d="M926.82,231.77l33.65-87.89H986l33.65,87.89H994.18l-4.36-13.18h-33l-4.35,13.18Zm57-31.26L973.52,170H973l-10.18,30.52Z"/><path class="cls-3" d="M1044.74,194.5v-.61q-15.2-6.93-15.2-23,0-12.45,8.58-19.74t22.31-7.29h44.93v87.89h-22.43V201.25H1072.2a33.15,33.15,0,0,0-6.5.67q-4.23.92-6,5.52L1050,231.77h-24.88l9.68-26.11Q1038.07,197.26,1044.74,194.5ZM1052.4,174a9,9,0,0,0,2.82,6.87,10.15,10.15,0,0,0,7.23,2.69h20.48V164.35h-20.48a10,10,0,0,0-7.23,2.7A9.21,9.21,0,0,0,1052.4,174Z"/><path class="cls-3" d="M133.59,328.73V342.4a135.1,135.1,0,0,1-2.76,29.11,41.59,41.59,0,0,1-3.37,9.68,67.89,67.89,0,0,1-4.32,7.57,17.46,17.46,0,0,1-4.63,4.51,41.21,41.21,0,0,1-5.15,3.12,21.53,21.53,0,0,1-5.7,1.84q-4.29.86-5.51,1c-.66.09-2.48.25-5.46.5l-3.62-18.45a25.69,25.69,0,0,0,3.19-.56,23.93,23.93,0,0,0,3.37-1.1,10.46,10.46,0,0,0,3.86-2.27,49.27,49.27,0,0,0,3.19-4.16,17.75,17.75,0,0,0,3-6.56,95.19,95.19,0,0,0,1.77-9.69,98.76,98.76,0,0,0,.8-13.36V310h65v87.9h-21.7V328.73Z"/><path class="cls-3" d="M272.9,397.87H250.41V350.42H250l-36,47.45H195.19V310h22.49V357.6h.49l36-47.63H272.9Z"/><path class="cls-3" d="M308.64,310h65.64v67.79h9l-1.23,40.45H367l-.62-20.34H301.83l-.61,20.34H286.14l-1.22-40.45h12.81q10.9-8.88,10.91-37.88Zm14.15,67.79h29.79v-49H330v9.87Q330,364,322.79,377Z"/><path class="cls-3" d="M462.78,364.46H418.1v12.93h49.59v20.48H395.61V310h71v20.47H418.1v15.69h44.68Z"/><path class="cls-3" d="M528.24,372.74H505.07v25.13H482.58V310h45.66q14,0,23.29,9.13a30.72,30.72,0,0,1,9.26,22.68q0,13.86-9.14,22.44T528.24,372.74Zm-1.35-42.3H505.07v22.38h21.82c3.6,0,6.4-1.11,8.4-3.31a11.1,11.1,0,0,0,3-7.91,11.24,11.24,0,0,0-3-7.91A11,11,0,0,0,526.89,330.44Z"/><path class="cls-3" d="M619.38,379.17a49.3,49.3,0,0,0,12.44-1.78,42.42,42.42,0,0,0,10.67-4.1l3.74,19.92q-11.6,6.44-27.65,6.56-21.57,0-35.12-12.45t-13.54-32.67q0-20.22,13.48-33.34t35.18-13.18a57.67,57.67,0,0,1,26,5.89l-5.64,20.47a37.34,37.34,0,0,0-20.35-5.76q-12.32,0-19.24,7.48a26.11,26.11,0,0,0-7,18.44q0,11.28,7.54,17.9T619.38,379.17Z"/><path class="cls-3" d="M712.61,309.85h27.45L707,345.52l35.61,52.35H715.12L690,360.6l-9.5,10.17v27.1H658V310h22.5V345H681Z"/><path class="cls-3" d="M744.72,397.87,778.37,310h25.56l33.65,87.9h-25.5l-4.35-13.18h-33l-4.35,13.18Zm57-31.26-10.29-30.53h-.56L780.7,366.61Z"/><path class="cls-3" d="M862.64,360.6V360q-15.2-6.93-15.2-23,0-12.44,8.58-19.73t22.31-7.3h44.93v87.9H900.83V367.34H890.1a33,33,0,0,0-6.49.68,8.14,8.14,0,0,0-6,5.51l-9.68,24.34H843l9.68-26.12Q856,363.37,862.64,360.6Zm7.67-20.47a8.94,8.94,0,0,0,2.81,6.86,10.2,10.2,0,0,0,7.24,2.7h20.47V330.44H880.36a10.05,10.05,0,0,0-7.24,2.7A9.24,9.24,0,0,0,870.31,340.13Z"/><path class="cls-3" d="M99.08,476.07h77.6V564h-22.5V496.54h-32.6V564H99.08Z"/><path class="cls-3" d="M240.24,538.83H217.07V564h-22.5V476.07h45.67q14,0,23.29,9.13a30.71,30.71,0,0,1,9.25,22.68q0,13.85-9.13,22.43T240.24,538.83Zm-1.35-42.29H217.07v22.37h21.82q5.38,0,8.39-3.31a11.05,11.05,0,0,0,3-7.91,11.18,11.18,0,0,0-3-7.9A11,11,0,0,0,238.89,496.54Z"/><path class="cls-3" d="M352.22,530.56H307.53v12.93h49.59V564H285V476.07h71v20.47H307.53v15.69h44.69Z"/><path class="cls-3" d="M394.87,510.76h-.37V564H372V476.07h28.87l21,50.5h.49l21-50.5h28.87V564H449.73v-53.2h-.37L428,564H416.2Z"/><path class="cls-3" d="M568,564h-22.5V516.52h-.36l-36,47.44H490.24V476.07h22.49v47.62h.49l36-47.62H568Z"/><path class="cls-3" d="M601.54,526.69v-.61q-15.19-6.93-15.2-23,0-12.45,8.58-19.74t22.31-7.29h44.93V564H639.73V533.44H629a33,33,0,0,0-6.49.67,8.13,8.13,0,0,0-6,5.52L606.82,564H581.93l9.68-26.11Q594.87,529.45,601.54,526.69Zm7.67-20.47a9,9,0,0,0,2.81,6.87,10.19,10.19,0,0,0,7.24,2.69h20.47V496.54H619.26a10.05,10.05,0,0,0-7.24,2.7A9.24,9.24,0,0,0,609.21,506.22Z"/></g></svg>