<svg xmlns="http://www.w3.org/2000/svg" xml:space="preserve" style="enable-background:new 0 0 340.9 85" viewBox="0 0 340.9 85"><path d="M244.2 7v22l37.9-6.6v-8.8zM282.1 7v6.6l20.9 3.7v1.4l-20.9 3.7V29l58.8-10.3v-1.4zM120.5.9H132v5.8h-11.5V.9zm-5.6 9v24.4h5.6V9.9c0-4.9-4.1-8.9-9-8.9h-8.2v5.6h8.2c1.9 0 3.4 1.4 3.4 3.3zM93.3 15H79.8V9.9c0-4.9-4.1-8.9-9-8.9h-.5v5.6h.5c1.8 0 3.3 1.5 3.3 3.3V15h-3.8v5.2h3.8v14.1h5.7V20.2h13.4v14.1h5.6V.9h-5.6l.1 14.1zM49.6 0c-8.8 0-16 7.2-16 16v3.2c0 8.8 7.2 16 16 16s16-7.2 16-16V16c0-8.8-7.2-16-16-16zM60 19.2c0 5.7-4.6 10.4-10.3 10.4S39.3 25 39.3 19.2V16c0-5.7 4.6-10.4 10.4-10.4S60 10.3 60 16v3.2zM149.4 35.2c8.8 0 16-7.2 16-16V16c0-8.8-7.2-16-16-16s-16 7.2-16 16v3.2c0 8.8 7.1 16 16 16zM139 16c0-5.7 4.6-10.4 10.3-10.4s10.4 4.6 10.4 10.3v3.2c0 5.7-4.6 10.4-10.3 10.4S139 24.9 139 19.2V16zM24.8 16.7 31.5.8h-5.9l-5.8 13.8c-.9 2.2-3.5 3.3-5.7 2.4-1.6-.7-2.7-2.3-2.7-4.1H7.9V.9H2.3v33.4h5.6V18.8c2.3 3.2 6.4 4.6 10.2 3.6l7 11.9h6.6L23 19.5c.8-.8 1.4-1.8 1.8-2.8zM186 .9h-15v33.4h5.6V20c2.1 3.1 5.6 5 9.4 5 6.7 0 12.1-5.4 12.1-12.1S192.7.9 186 .9zm0 18.4c-3.2 0-5.8-2.6-5.8-5.8v-1.2h-3.6V6.5h9.4c3.5-.1 6.5 2.6 6.7 6.2s-2.6 6.5-6.2 6.7c-.2-.1-.3-.1-.5-.1zM211.6 35.1c4.4 0 8.3-2.6 10-6.7v5.8h5.6v-22c0-6.3-5.1-11.4-11.4-11.4h-10.2v5.6h10.2c3.2 0 5.7 2.6 5.8 5.8v.1h-10c-6.3.2-11.2 5.4-11.1 11.7.2 6.1 5.1 11 11.1 11.1zm0-17.4h10v5.4h-4.5v1.2c0 3-2.5 5.5-5.5 5.5-3.3-.1-5.9-3-5.8-6.3.1-3.1 2.7-5.7 5.8-5.8zM274.1 83.7h-5.6V59.3c0-1.8-1.5-3.3-3.3-3.3h-8.3v-5.6h8.3c4.9 0 8.9 4 8.9 8.9v24.4zm0-33.4v5.8h11.5v-5.8h-11.5zM257 76.9c-4.3 3.7-10.8 3.3-14.5-1-1.6-1.9-2.5-4.3-2.5-6.8v-3.2c0-5.7 4.6-10.3 10.4-10.3h.6v-5.7h-.6c-8.8 0-16 7.2-16 16v3.2c0 8.8 7.2 16 16.1 15.9 3.4 0 6.7-1.1 9.4-3.1l-2.9-5zM226.3 50.3H202v5.6h3.6c-.4 6.1-1.7 12.1-3.8 17.8-1 2.6-3.6 4.4-6.4 4.4v5.6h35.7v-5.6h-4.7l-.1-27.8zM207 75.7c2.3-6.4 3.7-13 4.2-19.8h9.5v22.2h-15c.5-.8 1-1.6 1.3-2.4zM26.7 50.3H0V56c1.8 0 3.3 1.5 3.3 3.3v24.4H9V59.3c0-1.2-.2-2.3-.7-3.4h16.1v27.8H30V50.3h-3.3zM114.4 49.9c-8.8 0-16 7.2-16 16v3.2c0 8.8 7.2 16 16 16s16-7.2 16-16v-3.2c0-8.9-7.1-16-16-16zm10.4 19.2c-.2 5.7-5 10.2-10.7 10-5.5-.2-9.9-4.6-10-10v-3.2c.2-5.7 5-10.2 10.7-10 5.5.2 9.9 4.6 10 10v3.2zM178.7 49.9c-8.8 0-16 7.2-16 16v3.2c0 8.8 7.2 16 16 16s16-7.2 16-16v-3.2c0-8.9-7.2-16-16-16zM189 69.1c-.2 5.7-5 10.2-10.7 10-5.5-.2-9.9-4.6-10-10v-3.2c.2-5.7 5-10.2 10.7-10 5.5.2 9.9 4.6 10 10v3.2zM306.9 64.6c1.3-1.5 2-3.5 2-5.5 0-4.7-3.9-8.6-8.6-8.6H291v13.3c-3.3 1.9-5.3 5.4-5.3 9.3v10.7h14.1c5.6 0 10.6-4.1 11.2-9.7.3-3.7-1.2-7.3-4.1-9.5zm-10.4-2.4v-6.3h3.9c1.7-.1 3.2 1.2 3.3 3 .1 1.7-1.2 3.2-3 3.3h-4.2zm9 11.8c-.6 2.5-2.8 4.3-5.4 4.2h-8.9v-4.6c0-3.3 2.7-6 6-6h3.2c2.9 0 5.3 2.4 5.3 5.3-.1.4-.2.8-.2 1.1zM160.8 50.5h-5.6c-1 5-4.4 8-8.5 11.3-4.1-3.2-7.6-6.3-8.6-11.3h-5.7c1.1 6.7 5.4 11.2 9.7 14.9-5 4.2-9.7 9.4-9.7 18.4h5.7c0-7.1 3.8-11 8.6-14.8 4.8 3.8 8.6 7.7 8.6 14.8h5.6c0-9-4.7-14.2-9.7-18.4 4.2-3.7 8.4-8.2 9.6-14.9zM50.1 50.3H39.9V56h10.2c3.2 0 5.7 2.6 5.7 5.8v.1h-10c-6.3.2-11.2 5.4-11.1 11.7.2 6 5 10.9 11.1 11.1 4.4 0 8.3-2.6 10-6.7v5.8h5.7v-22c0-6.4-5.1-11.5-11.4-11.5zm1.2 22.3v1.2c0 3-2.5 5.5-5.5 5.5-3.3 0-6.1-2.7-6.1-6.1 0-3.3 2.7-6.1 6.1-6.1h10v5.4l-4.5.1zM83.1 50.3h-15v33.4h5.6V69.5c2.1 3.1 5.7 4.9 9.4 4.9 6.7 0 12-5.4 12-12s-5.3-12.1-12-12.1zm0 18.5c-3.2 0-5.8-2.6-5.8-5.8v-1.2h-3.6V56h9.4c3.5 0 6.4 2.9 6.4 6.4s-2.9 6.4-6.4 6.4zM329.5 50.3h-10.2V56h10.2c3.2 0 5.7 2.6 5.7 5.8v.1h-10c-6.3-.2-11.5 4.8-11.7 11.1s4.8 11.5 11.1 11.7h.7c4.4 0 8.3-2.6 10-6.7v5.8h5.6v-22c0-6.4-5.1-11.5-11.4-11.5zm1.2 22.3v1.2c0 3-2.5 5.5-5.5 5.5-3.3 0-6.1-2.7-6.1-6.1 0-3.3 2.7-6.1 6.1-6.1h10v5.4l-4.5.1z"/></svg>