<svg width="2315" height="1080" viewBox="0 0 2315 1080" fill="none" xmlns="http://www.w3.org/2000/svg">
<path d="M540 0L77.142 1002.86H0L462.858 0H540ZM1716.43 0V71.6318H1938.22V694.287H2016.81V71.6318H2238.59V0H1716.43ZM1315.24 503.507H1327.2L1562.39 111.745V694.287H1639.58V0H1543.49L1321.22 368.608L1098.95 0H1002.86V694.287H1080V111.745L1315.24 503.507V503.507ZM575.631 925.715L789.269 462.858H712.077L462.858 1002.86H2160V1080L2314.29 964.286L2160 848.571V925.715H575.631V925.715ZM771.429 0L308.571 1002.86H231.429L694.287 0H771.429V0Z" fill="black"/>
</svg>
